# xmcd CD database file
#
# Track frame offsets:
#	150
#	18275
#	34887
#	50812
#	65587
#	86137
#	103175
#	112562
#	127415
#	142525
#	165412
#	180800
#	202137
#	212787
#	226562
#	240600
#
# Disc length: 3433 seconds
#
# Revision: 0
# Processed by: cddbd v1.5.1PL2 Copyright (c) Steve Scherf et al.
# Submitted via: CDex 1.51
#
DISCID=d30d6710
DTITLE=Dream of America - 3 VOVAL STANDARDS
DYEAR=1990
DGENRE=Vocal
TTITLE0=FLY ME TO THE MOON - TONY BENNETT
TTITLE1=THE SHADOW OF YOUR SMILE - TONY BENNETT
TTITLE2=TENDERLY - ROSEMARY CLOONEY
TTITLE3=NIGHT AND DAY - JO STAFFORD
TTITLE4=BODY AND SOUL - CAROL SLOANE
TTITLE5=ALL OF ME - SHIRLEY HORN
TTITLE6=TAKING A CHANCE ON LOVE - CAROL SLOANE
TTITLE7=LOVER, COME BACK TO ME - MILDRED BAILEY
TTITLE8=LULLABY OF BIRDLAND - CARMEN LUNDY
TTITLE9=YOU AND THE NIGHT AND THE MUSIC - BOBBE NORRIS
TTITLE10=YOU'D BE SO NICE TO COME HOME TO - JO STAFFORD
TTITLE11=BUT NOT FOR ME - CAROL SLOANE
TTITLE12=IT'S A SIN TO TELL A LIE - TONY BENNETT
TTITLE13=HOW HIGH THE MOON - JO STAFFORD
TTITLE14=WHEN YOU WISH UPON A STAR - ROSEMARY CLOONEY
TTITLE15=SENTIMENTAL JOURNEY - DORIS DAY
EXTD=YEAR: 1990
EXTT0=
EXTT1=
EXTT2=
EXTT3=
EXTT4=
EXTT5=
EXTT6=
EXTT7=
EXTT8=
EXTT9=
EXTT10=
EXTT11=
EXTT12=
EXTT13=
EXTT14=
EXTT15=
PLAYORDER=
